<svg width="2000px" height="1037px"
 viewBox="0.00 0.00 1015.74 526.97" xmlns="http://www.w3.org/2000/svg" xmlns:xlink="http://www.w3.org/1999/xlink">
<g id="graph0" class="graph" transform="scale(1.0 1.0) rotate(0) translate(4 522.97)">
<title>ContextMapGraph</title>
<polygon fill="white" stroke="transparent" points="-4,4 -4,-522.97 1011.74,-522.97 1011.74,4 -4,4"/>
<!-- CatalogProductosContext -->
<g id="node1" class="node">
<title>CatalogProductosContext</title>
<polygon fill="none" stroke="black" stroke-width="2" points="156.96,-518.15 145.65,-517.66 134.5,-517.06 123.56,-516.34 112.86,-515.51 102.46,-514.57 92.39,-513.53 82.7,-512.38 73.42,-511.13 64.58,-509.79 56.22,-508.35 48.37,-506.83 41.05,-505.22 34.28,-503.53 28.1,-501.77 22.51,-499.94 17.53,-498.04 13.16,-496.08 9.42,-494.07 6.31,-492.01 3.83,-489.9 1.98,-487.76 0.74,-485.58 0.12,-483.38 0.1,-481.16 0.67,-478.92 1.82,-476.67 3.51,-474.42 5.74,-472.17 8.48,-469.93 11.71,-467.7 15.4,-465.49 19.53,-463.31 24.07,-461.15 28.99,-459.04 34.27,-456.96 39.88,-454.94 45.79,-452.97 51.98,-451.05 58.41,-449.2 65.07,-447.41 71.93,-445.7 78.96,-444.06 86.15,-442.51 93.47,-441.04 100.89,-439.67 108.41,-438.38 116.01,-437.19 123.66,-436.11 131.36,-435.13 139.09,-434.25 146.83,-433.48 154.59,-432.83 162.35,-432.29 170.1,-431.86 177.83,-431.55 185.54,-431.36 193.22,-431.29 200.87,-431.33 208.47,-431.5 216.04,-431.78 223.55,-432.19 231.01,-432.71 238.41,-433.35 245.74,-434.11 253.01,-434.98 260.19,-435.96 267.29,-437.05 274.29,-438.25 281.19,-439.55 287.97,-440.95 294.63,-442.45 301.14,-444.04 307.49,-445.72 313.68,-447.48 319.68,-449.33 325.46,-451.24 331.03,-453.22 336.35,-455.27 341.4,-457.37 346.16,-459.53 350.61,-461.73 354.72,-463.97 358.48,-466.24 361.86,-468.54 364.83,-470.85 367.38,-473.18 369.48,-475.52 371.11,-477.85 372.25,-480.18 372.88,-482.49 372.99,-484.78 372.55,-487.05 371.55,-489.27 369.99,-491.46 367.85,-493.61 365.12,-495.7 361.8,-497.73 357.9,-499.69 353.4,-501.59 348.32,-503.41 342.66,-505.14 336.43,-506.8 329.65,-508.36 322.34,-509.83 314.51,-511.2 306.18,-512.46 297.39,-513.62 288.16,-514.67 278.52,-515.61 268.51,-516.44 258.16,-517.15 247.52,-517.74 236.63,-518.22 225.52,-518.57 214.24,-518.8 202.84,-518.91 191.37,-518.9 179.86,-518.77 168.38,-518.52 156.96,-518.15"/>
<text text-anchor="middle" x="189.4" y="-471.23" font-family="sans-serif" font-size="16.00">CatalogProductosContext</text>
</g>
<!-- GestionOrdenesContext -->
<g id="node2" class="node">
<title>GestionOrdenesContext</title>
<polygon fill="none" stroke="black" stroke-width="2" points="262.12,-296.39 272.09,-297.6 281.79,-298.91 291.2,-300.32 300.26,-301.82 308.94,-303.4 317.21,-305.07 325.03,-306.82 332.37,-308.63 339.21,-310.51 345.51,-312.45 351.26,-314.44 356.42,-316.48 361,-318.56 364.97,-320.68 368.32,-322.82 371.04,-324.99 373.14,-327.17 374.6,-329.37 375.43,-331.57 375.64,-333.78 375.22,-335.98 374.21,-338.18 372.6,-340.36 370.41,-342.52 367.66,-344.66 364.38,-346.77 360.58,-348.84 356.29,-350.88 351.54,-352.88 346.34,-354.84 340.74,-356.74 334.76,-358.59 328.44,-360.39 321.79,-362.12 314.85,-363.8 307.66,-365.4 300.24,-366.93 292.62,-368.39 284.84,-369.77 276.91,-371.07 268.88,-372.29 260.76,-373.42 252.58,-374.46 244.36,-375.41 236.13,-376.27 227.91,-377.03 219.71,-377.68 211.56,-378.24 203.48,-378.7 195.46,-379.04 187.54,-379.29 179.72,-379.42 172.02,-379.44 164.43,-379.35 156.98,-379.15 149.66,-378.83 142.49,-378.4 135.47,-377.86 128.61,-377.21 121.9,-376.44 115.36,-375.55 108.98,-374.56 102.78,-373.46 96.75,-372.25 90.9,-370.93 85.24,-369.51 79.76,-367.99 74.47,-366.37 69.39,-364.66 64.51,-362.85 59.85,-360.97 55.41,-359 51.2,-356.95 47.23,-354.84 43.51,-352.66 40.06,-350.42 36.88,-348.13 34,-345.8 31.42,-343.43 29.15,-341.03 27.22,-338.6 25.63,-336.16 24.41,-333.71 23.57,-331.26 23.12,-328.81 23.07,-326.38 23.44,-323.98 24.25,-321.61 25.5,-319.27 27.21,-316.99 29.39,-314.75 32.04,-312.58 35.17,-310.48 38.78,-308.46 42.89,-306.52 47.48,-304.66 52.56,-302.91 58.11,-301.25 64.15,-299.7 70.65,-298.27 77.6,-296.95 84.99,-295.75 92.81,-294.67 101.03,-293.72 109.62,-292.9 118.57,-292.21 127.85,-291.65 137.42,-291.23 147.26,-290.95 157.33,-290.79 167.6,-290.78 178.02,-290.89 188.56,-291.14 199.17,-291.52 209.82,-292.03 220.47,-292.66 231.06,-293.42 241.57,-294.29 251.93,-295.28 262.12,-296.39"/>
<text text-anchor="middle" x="189.4" y="-332.36" font-family="sans-serif" font-size="16.00">GestionOrdenesContext</text>
</g>
<!-- CatalogProductosContext&#45;&gt;GestionOrdenesContext -->
<g id="edge1" class="edge">
<title>CatalogProductosContext&#45;&gt;GestionOrdenesContext</title>
<path fill="none" stroke="black" stroke-width="2" d="M189.4,-431.1C189.4,-414.64 189.4,-395.88 189.4,-379.47"/>
<text text-anchor="middle" x="264.9" y="-403.49" font-family="sans-serif" font-size="12.00"> &#160;&#160;&#160;&#160;&#160;&#160;&#160;&#160;&#160;&#160;&#160;&#160;&#160;&#160;&#160;&#160;&#160;&#160;&#160;&#160;&#160;&#160;&#160;&#160;&#160;&#160;&#160;&#160;&#160;&#160;&#160;&#160;&#160;&#160;&#160;&#160;&#160;&#160;&#160;</text>
<polygon fill="white" stroke="transparent" points="182.4,-370.47 182.4,-387.47 196.4,-387.47 196.4,-370.47 182.4,-370.47"/>
<text text-anchor="start" x="184.4" y="-375.87" font-family="sans-serif" font-size="12.00">D</text>
<polygon fill="white" stroke="transparent" points="165.4,-421.1 165.4,-440.1 181.4,-440.1 181.4,-421.1 165.4,-421.1"/>
<polyline fill="none" stroke="black" points="181.4,-421.1 181.4,-440.1 "/>
<text text-anchor="start" x="168.4" y="-427.5" font-family="sans-serif" font-size="12.00">U</text>
<polygon fill="white" stroke="transparent" points="181.4,-421.1 181.4,-440.1 214.4,-440.1 214.4,-421.1 181.4,-421.1"/>
<polygon fill="none" stroke="black" points="181.4,-421.1 181.4,-440.1 214.4,-440.1 214.4,-421.1 181.4,-421.1"/>
<text text-anchor="start" x="184.4" y="-427.5" font-family="sans-serif" font-size="12.00">OHS</text>
</g>
<!-- GestionClientesContext -->
<g id="node3" class="node">
<title>GestionClientesContext</title>
<polygon fill="none" stroke="black" stroke-width="2" points="534.56,-157.49 543.29,-155.79 552.23,-154.19 561.35,-152.72 570.61,-151.36 579.97,-150.14 589.4,-149.05 598.87,-148.1 608.34,-147.29 617.78,-146.63 627.15,-146.12 636.43,-145.77 645.6,-145.57 654.61,-145.53 663.45,-145.64 672.09,-145.91 680.5,-146.34 688.68,-146.92 696.59,-147.65 704.23,-148.53 711.57,-149.55 718.6,-150.71 725.32,-152.01 731.7,-153.44 737.75,-154.99 743.46,-156.66 748.82,-158.43 753.82,-160.31 758.47,-162.29 762.77,-164.35 766.7,-166.49 770.28,-168.7 773.5,-170.98 776.37,-173.3 778.89,-175.67 781.07,-178.08 782.89,-180.51 784.38,-182.96 785.53,-185.41 786.34,-187.87 786.83,-190.32 786.99,-192.76 786.82,-195.18 786.33,-197.56 785.52,-199.91 784.4,-202.22 782.96,-204.47 781.21,-206.68 779.15,-208.82 776.77,-210.9 774.09,-212.91 771.09,-214.85 767.79,-216.71 764.18,-218.49 760.26,-220.19 756.04,-221.8 751.51,-223.33 746.68,-224.77 741.54,-226.12 736.11,-227.38 730.38,-228.55 724.35,-229.62 718.05,-230.6 711.46,-231.5 704.61,-232.29 697.49,-233 690.11,-233.61 682.5,-234.13 674.66,-234.56 666.61,-234.9 658.36,-235.14 649.93,-235.3 641.35,-235.37 632.62,-235.34 623.79,-235.23 614.86,-235.02 605.86,-234.73 596.83,-234.35 587.79,-233.88 578.77,-233.33 569.8,-232.68 560.91,-231.95 552.14,-231.13 543.51,-230.22 535.06,-229.22 526.82,-228.14 518.83,-226.97 511.11,-225.72 503.7,-224.39 496.64,-222.96 489.95,-221.46 483.66,-219.88 477.8,-218.22 472.4,-216.48 467.48,-214.67 463.06,-212.78 459.18,-210.83 455.83,-208.81 453.06,-206.73 450.86,-204.59 449.24,-202.4 448.23,-200.16 447.82,-197.88 448.02,-195.56 448.83,-193.21 450.24,-190.84 452.26,-188.45 454.86,-186.05 458.05,-183.64 461.81,-181.24 466.13,-178.86 470.98,-176.49 476.34,-174.15 482.19,-171.85 488.51,-169.6 495.26,-167.39 502.43,-165.26 509.97,-163.19 517.87,-161.2 526.07,-159.3 534.56,-157.49"/>
<text text-anchor="middle" x="630.4" y="-189.7" font-family="sans-serif" font-size="16.00">GestionClientesContext</text>
</g>
<!-- GestionOrdenesContext&#45;&gt;GestionClientesContext -->
<g id="edge2" class="edge">
<title>GestionOrdenesContext&#45;&gt;GestionClientesContext</title>
<path fill="none" stroke="black" stroke-width="2" d="M296.15,-301.11C365.74,-278.91 456.15,-250.08 525.39,-227.99"/>
<text text-anchor="middle" x="457.9" y="-262.63" font-family="sans-serif" font-size="12.00">Partnership</text>
</g>
<!-- GestionPagosContext -->
<g id="node5" class="node">
<title>GestionPagosContext</title>
<polygon fill="none" stroke="black" stroke-width="2" points="104.69,-230.23 96.29,-228.67 88.18,-227.01 80.39,-225.27 72.95,-223.46 65.89,-221.57 59.24,-219.61 53.04,-217.6 47.3,-215.53 42.05,-213.42 37.3,-211.27 33.09,-209.09 29.41,-206.88 26.29,-204.66 23.74,-202.42 21.75,-200.17 20.34,-197.93 19.51,-195.69 19.25,-193.46 19.57,-191.24 20.45,-189.05 21.88,-186.88 23.85,-184.75 26.36,-182.65 29.37,-180.59 32.87,-178.57 36.85,-176.6 41.28,-174.69 46.12,-172.82 51.37,-171.02 56.99,-169.27 62.96,-167.59 69.24,-165.97 75.81,-164.43 82.63,-162.95 89.69,-161.55 96.94,-160.23 104.37,-158.98 111.93,-157.81 119.61,-156.73 127.38,-155.73 135.21,-154.82 143.07,-154 150.94,-153.26 158.8,-152.62 166.63,-152.08 174.4,-151.63 182.11,-151.27 189.72,-151.02 197.22,-150.86 204.61,-150.81 211.86,-150.86 218.97,-151.02 225.93,-151.28 232.72,-151.64 239.33,-152.12 245.77,-152.7 252.03,-153.38 258.09,-154.18 263.96,-155.08 269.63,-156.08 275.1,-157.2 280.37,-158.41 285.42,-159.73 290.27,-161.15 294.91,-162.67 299.33,-164.28 303.53,-165.99 307.51,-167.79 311.26,-169.67 314.79,-171.63 318.08,-173.67 321.13,-175.78 323.94,-177.96 326.5,-180.2 328.79,-182.49 330.83,-184.83 332.58,-187.21 334.06,-189.63 335.24,-192.07 336.12,-194.54 336.69,-197.01 336.94,-199.49 336.86,-201.96 336.44,-204.41 335.67,-206.85 334.54,-209.26 333.04,-211.62 331.17,-213.94 328.91,-216.21 326.27,-218.41 323.23,-220.54 319.8,-222.6 315.97,-224.56 311.73,-226.43 307.1,-228.21 302.07,-229.87 296.65,-231.43 290.84,-232.86 284.66,-234.18 278.11,-235.36 271.21,-236.41 263.97,-237.33 256.41,-238.11 248.55,-238.75 240.41,-239.25 232.01,-239.61 223.38,-239.82 214.55,-239.89 205.55,-239.81 196.4,-239.59 187.15,-239.24 177.81,-238.74 168.44,-238.11 159.06,-237.34 149.71,-236.45 140.42,-235.44 131.24,-234.3 122.2,-233.05 113.33,-231.69 104.69,-230.23"/>
<text text-anchor="middle" x="189.4" y="-189.7" font-family="sans-serif" font-size="16.00">GestionPagosContext</text>
</g>
<!-- GestionOrdenesContext&#45;&gt;GestionPagosContext -->
<g id="edge3" class="edge">
<title>GestionOrdenesContext&#45;&gt;GestionPagosContext</title>
<path fill="none" stroke="black" stroke-width="2" d="M189.4,-291.04C189.4,-274.6 189.4,-255.94 189.4,-239.43"/>
<text text-anchor="middle" x="223.9" y="-262.63" font-family="sans-serif" font-size="12.00">Partnership</text>
</g>
<!-- GestionEnviosContext -->
<g id="node4" class="node">
<title>GestionEnviosContext</title>
<polygon fill="none" stroke="black" stroke-width="2" points="785.48,-41.26 787.29,-44.07 788.67,-46.9 789.61,-49.71 790.09,-52.5 790.11,-55.26 789.68,-57.97 788.78,-60.64 787.42,-63.24 785.6,-65.77 783.32,-68.23 780.6,-70.59 777.42,-72.85 773.81,-75.02 769.77,-77.07 765.31,-79 760.45,-80.82 755.19,-82.51 749.56,-84.08 743.58,-85.51 737.25,-86.81 730.6,-87.98 723.66,-89.01 716.43,-89.91 708.95,-90.67 701.24,-91.31 693.32,-91.81 685.22,-92.18 676.97,-92.42 668.58,-92.55 660.1,-92.55 651.53,-92.44 642.92,-92.22 634.29,-91.89 625.66,-91.46 617.06,-90.93 608.52,-90.3 600.07,-89.59 591.73,-88.8 583.52,-87.92 575.47,-86.97 567.61,-85.95 559.96,-84.86 552.53,-83.7 545.35,-82.49 538.44,-81.22 531.81,-79.89 525.49,-78.52 519.49,-77.09 513.83,-75.62 508.51,-74.11 503.56,-72.56 498.98,-70.96 494.78,-69.33 490.98,-67.66 487.57,-65.95 484.56,-64.21 481.97,-62.43 479.79,-60.62 478.02,-58.78 476.66,-56.91 475.73,-55.01 475.2,-53.08 475.1,-51.13 475.4,-49.15 476.1,-47.15 477.21,-45.13 478.71,-43.09 480.6,-41.04 482.87,-38.98 485.51,-36.91 488.52,-34.84 491.88,-32.77 495.59,-30.7 499.63,-28.65 503.99,-26.62 508.67,-24.6 513.64,-22.62 518.9,-20.68 524.44,-18.77 530.24,-16.92 536.28,-15.13 542.56,-13.4 549.05,-11.74 555.75,-10.16 562.64,-8.67 569.7,-7.28 576.92,-5.99 584.27,-4.81 591.76,-3.75 599.35,-2.81 607.03,-2 614.78,-1.33 622.59,-0.8 630.44,-0.42 638.31,-0.19 646.18,-0.12 654.02,-0.2 661.84,-0.45 669.59,-0.85 677.27,-1.42 684.86,-2.16 692.32,-3.05 699.66,-4.11 706.84,-5.32 713.84,-6.69 720.66,-8.21 727.25,-9.88 733.62,-11.68 739.74,-13.62 745.58,-15.68 751.14,-17.87 756.39,-20.16 761.31,-22.55 765.9,-25.04 770.13,-27.6 774,-30.24 777.47,-32.93 780.56,-35.67 783.23,-38.45 785.48,-41.26"/>
<text text-anchor="middle" x="630.4" y="-44.58" font-family="sans-serif" font-size="16.00">GestionEnviosContext</text>
</g>
<!-- GestionClientesContext&#45;&gt;GestionEnviosContext -->
<g id="edge4" class="edge">
<title>GestionClientesContext&#45;&gt;GestionEnviosContext</title>
<path fill="none" stroke="black" stroke-width="2" d="M630.4,-145.64C630.4,-128.35 630.4,-108.88 630.4,-91.99"/>
<text text-anchor="middle" x="664.9" y="-118.16" font-family="sans-serif" font-size="12.00">Partnership</text>
</g>
<!-- GestionAutorizacionAutencticacionContext -->
<g id="node6" class="node">
<title>GestionAutorizacionAutencticacionContext</title>
<polygon fill="none" stroke="black" stroke-width="2" points="796.48,-377.29 779.66,-378.32 762.67,-379.24 745.59,-380.03 728.48,-380.7 711.42,-381.23 694.46,-381.63 677.67,-381.89 661.11,-382.02 644.84,-382 628.91,-381.85 613.38,-381.55 598.3,-381.11 583.71,-380.54 569.66,-379.82 556.18,-378.97 543.31,-377.99 531.08,-376.87 519.52,-375.63 508.64,-374.26 498.47,-372.78 489.02,-371.18 480.3,-369.47 472.32,-367.66 465.09,-365.76 458.6,-363.77 452.85,-361.69 447.83,-359.55 443.54,-357.33 439.96,-355.06 437.09,-352.73 434.9,-350.37 433.39,-347.96 432.53,-345.54 432.31,-343.09 432.7,-340.63 433.69,-338.18 435.26,-335.72 437.39,-333.29 440.06,-330.87 443.25,-328.48 446.95,-326.13 451.12,-323.83 455.77,-321.57 460.88,-319.37 466.42,-317.24 472.39,-315.17 478.78,-313.18 485.58,-311.26 492.77,-309.43 500.35,-307.68 508.31,-306.03 516.64,-304.47 525.34,-303.01 534.4,-301.65 543.82,-300.39 553.59,-299.23 563.71,-298.18 574.17,-297.24 584.96,-296.4 596.08,-295.67 607.52,-295.05 619.28,-294.54 631.33,-294.14 643.67,-293.84 656.28,-293.65 669.15,-293.57 682.25,-293.59 695.58,-293.72 709.1,-293.95 722.78,-294.28 736.61,-294.71 750.55,-295.23 764.56,-295.85 778.61,-296.57 792.67,-297.37 806.68,-298.27 820.61,-299.26 834.42,-300.33 848.05,-301.48 861.45,-302.71 874.59,-304.03 887.39,-305.41 899.82,-306.88 911.83,-308.41 923.35,-310.01 934.33,-311.68 944.73,-313.41 954.5,-315.2 963.58,-317.05 971.93,-318.95 979.5,-320.9 986.25,-322.9 992.13,-324.94 997.12,-327.01 1001.18,-329.13 1004.28,-331.27 1006.4,-333.43 1007.5,-335.62 1007.59,-337.82 1006.63,-340.04 1004.64,-342.25 1001.61,-344.47 997.53,-346.68 992.43,-348.88 986.31,-351.06 979.19,-353.22 971.1,-355.34 962.07,-357.43 952.13,-359.48 941.31,-361.47 929.67,-363.41 917.25,-365.29 904.09,-367.1 890.26,-368.83 875.82,-370.48 860.81,-372.04 845.31,-373.51 829.37,-374.87 813.08,-376.14 796.48,-377.29"/>
<text text-anchor="middle" x="700.4" y="-332.36" font-family="sans-serif" font-size="16.00">GestionAutorizacionAutencticacionContext</text>
</g>
<!-- GestionAutorizacionAutencticacionContext&#45;&gt;GestionClientesContext -->
<g id="edge5" class="edge">
<title>GestionAutorizacionAutencticacionContext&#45;&gt;GestionClientesContext</title>
<path fill="none" stroke="black" stroke-width="2" d="M679.58,-293.34C670.47,-275.04 659.82,-253.63 650.77,-235.43"/>
<text text-anchor="middle" x="742.9" y="-262.63" font-family="sans-serif" font-size="12.00"> &#160;&#160;&#160;&#160;&#160;&#160;&#160;&#160;&#160;&#160;&#160;&#160;&#160;&#160;&#160;&#160;&#160;&#160;&#160;&#160;&#160;&#160;&#160;&#160;&#160;&#160;&#160;&#160;&#160;&#160;&#160;&#160;&#160;&#160;&#160;&#160;&#160;&#160;&#160;</text>
<polygon fill="white" stroke="transparent" points="631.77,-225.43 631.77,-244.43 647.77,-244.43 647.77,-225.43 631.77,-225.43"/>
<polyline fill="none" stroke="black" points="647.77,-225.43 647.77,-244.43 "/>
<text text-anchor="start" x="634.77" y="-231.83" font-family="sans-serif" font-size="12.00">D</text>
<polygon fill="white" stroke="transparent" points="647.77,-225.43 647.77,-244.43 669.77,-244.43 669.77,-225.43 647.77,-225.43"/>
<polygon fill="none" stroke="black" points="647.77,-225.43 647.77,-244.43 669.77,-244.43 669.77,-225.43 647.77,-225.43"/>
<text text-anchor="start" x="650.77" y="-231.83" font-family="sans-serif" font-size="12.00">CF</text>
<polygon fill="white" stroke="transparent" points="661.58,-283.34 661.58,-302.34 677.58,-302.34 677.58,-283.34 661.58,-283.34"/>
<polyline fill="none" stroke="black" points="677.58,-283.34 677.58,-302.34 "/>
<text text-anchor="start" x="664.58" y="-289.74" font-family="sans-serif" font-size="12.00">U</text>
<polygon fill="white" stroke="transparent" points="677.58,-283.34 677.58,-302.34 698.58,-302.34 698.58,-283.34 677.58,-283.34"/>
<polygon fill="none" stroke="black" points="677.58,-283.34 677.58,-302.34 698.58,-302.34 698.58,-283.34 677.58,-283.34"/>
<text text-anchor="start" x="680.58" y="-289.74" font-family="sans-serif" font-size="12.00">PL</text>
</g>
</g>
</svg>
